<svg version="1.2" xmlns="http://www.w3.org/2000/svg" viewBox="0 0 1581 1449" width="1581" height="1449">
	<title>RITES</title>
	<style>
		.s0 { fill: #058c2c } 
	</style>
	<path id="Layer" fill-rule="evenodd" class="s0" d="m1234.1 5.6c58.3 17 103.4 61.8 119.8 119.4 5.9 20.3 7.2 57.6 2.9 78.6-3.9 19.6-11.4 39.3-21.6 56.3-9.5 15.7-32 39.9-47.7 51-49.5 35.1-115.9 41.3-170.2 16.1-39.3-18.3-66.5-45.5-84.8-85.1-20.9-44.2-20.6-97.9 0-142.4 23.6-50.4 66.1-84.1 121.4-96.9 16.4-3.9 62.9-2.3 80.2 3zm346.3 393.4c1.6 1.3-39.6 122.7-53.1 156.1-24.2 60.2-44.5 94.9-68.7 117.5-29.4 27.9-63.8 42.6-106.7 46.5-9.8 1-141.4 1.6-292.6 1.6-301.7 0-291.6-0.3-321.7 11.5-27.5 10.5-54.3 33.7-70.3 60.9-4 6.9-18.7 35.7-32.4 64.1-68.8 142.1-171.8 355.5-223.2 462.5l-57.6 120.2h-177.4c-167.9 0-177.4-0.4-176.4-3.3 0.6-2 19-41.9 40.6-89.4 21.9-47.1 104.7-227.5 184.2-400.3 156.1-339.1 167.9-364.3 185.9-394.4 46.8-77.6 116.5-127.6 202.9-145.6 23.6-5 42.6-5.3 418.6-7.2 421.9-2 546.6-2 547.9-0.7zm-495.5 364.6c0 0.7-12.8 27.8-28.5 60.2-15.7 32.1-90 184.7-164.6 338.8-74.6 153.9-136.5 281.2-137.1 282.5-1 2-35.1 2.6-175.8 3.3-110.6 0.6-175.7 0.3-177.4-0.7-1.9-1.6 3.3-14.4 26.9-65.1 68.4-146 180.3-380.7 244.8-511.6 34.7-71 38.9-77.3 59.2-90.7 11.1-7.2 27.5-13.4 42.5-16.3 10.8-2 310-2.7 310-0.4z"/>
</svg>